<svg id="Layer_1" data-name="Layer 1" xmlns="http://www.w3.org/2000/svg" viewBox="0 0 98.37 97.71"><title>icon</title><path d="M18.44.12H79.92a18.27,18.27,0,0,1,18.32,18.2V79.38a18.27,18.27,0,0,1-18.32,18.2H18.44A18.27,18.27,0,0,1,.12,79.38V18.32A18.27,18.27,0,0,1,18.44.12Z" transform="translate(0 0.01)" style="fill:#262626;stroke:#000;stroke-miterlimit:10;stroke-width:0.25px"/><path d="M54.46,49.11a3.14,3.14,0,0,0,.6-2.6,12.46,12.46,0,0,0-5.49-8.18,12.37,12.37,0,0,0-13.82.37,12.54,12.54,0,0,0,5.67,22.64,12,12,0,0,0,1.46.09,11.88,11.88,0,0,0,3-.39,12.36,12.36,0,0,0,3.72-1.6,13.31,13.31,0,0,0,3.15-3l.07-.07a2.14,2.14,0,0,0,.45-1.57,1.74,1.74,0,0,0-.66-1.19,1.87,1.87,0,0,0-1.15-.42A1.84,1.84,0,0,0,50,54l0,.05c-.17.23-.35.47-.55.71A9.1,9.1,0,0,1,47,56.7a8.66,8.66,0,0,1-4.06,1,8.89,8.89,0,0,1-8.3-5.85,10.78,10.78,0,0,1-.37-1.39.57.57,0,0,0,0-.13H51.62A3.62,3.62,0,0,0,54.46,49.11ZM34.4,46.73a8.74,8.74,0,0,1,17,0Zm48.51,2a3.16,3.16,0,1,1-3.16-3.18A3.17,3.17,0,0,1,82.91,48.75ZM66.43,40.17a5.65,5.65,0,0,0-.7,0c-3.57.44-3.92,2.18-3.92,6.34V59.39a1.79,1.79,0,1,1-3.58,0V38.51A1.79,1.79,0,0,1,61.71,38a7.08,7.08,0,0,1,4.22-1.38h.51a1.81,1.81,0,0,1,1.8,1.81A1.78,1.78,0,0,1,66.43,40.17Zm-36,18.09a1.86,1.86,0,0,1,.52,1.28,1.79,1.79,0,0,1-3.1,1.24l-9.25-9.32L9.29,60.82A1.78,1.78,0,0,1,8,61.35a1.81,1.81,0,0,1-1.79-1.81,1.76,1.76,0,0,1,.55-1.3L16,48.88,6.78,39.54A1.82,1.82,0,0,1,8,36.43,1.78,1.78,0,0,1,9.29,37l9.3,9.34L27.86,37a1.8,1.8,0,0,1,1.27-.54,1.81,1.81,0,0,1,1.8,1.81,1.78,1.78,0,0,1-.52,1.27l-9.27,9.38Zm49.34-22A12.49,12.49,0,1,0,92.12,48.75,12.45,12.45,0,0,0,79.75,36.27Zm0,21.23a8.76,8.76,0,1,1,8.67-8.75A8.72,8.72,0,0,1,79.75,57.5Z" transform="translate(0 0.01)" style="fill:#fff;fill-rule:evenodd"/></svg>