<svg id="Layer_1" data-name="Layer 1" xmlns="http://www.w3.org/2000/svg" viewBox="0 0 98.37 97.71"><title>icon</title><path d="M18.45.13H79.92a18.25,18.25,0,0,1,18.32,18.2V79.39a18.27,18.27,0,0,1-18.32,18.2H18.45A18.28,18.28,0,0,1,.12,79.39V18.33A18.27,18.27,0,0,1,18.45.13Z" style="fill:#262626;stroke:#000;stroke-miterlimit:10;stroke-width:0.25px"/><path d="M49.18,15.63A33.23,33.23,0,1,0,82.41,48.86,33.22,33.22,0,0,0,49.18,15.63" style="fill:#00b8e9;fill-rule:evenodd"/><path d="M52.4,48.9a1.89,1.89,0,0,0,.37-1.57,7.47,7.47,0,0,0-3.32-4.93,7.46,7.46,0,0,0-8.32.22A7.62,7.62,0,0,0,38,48.81a7.38,7.38,0,0,0,.23,1.82,7.57,7.57,0,0,0,6.35,5.64,8.46,8.46,0,0,0,.87,0,7,7,0,0,0,1.81-.24,7.16,7.16,0,0,0,2.24-1,8,8,0,0,0,1.9-1.81l0-.05a1.25,1.25,0,0,0,.27-.94,1,1,0,0,0-.39-.72,1.17,1.17,0,0,0-.7-.25,1.09,1.09,0,0,0-.89.5l0,0q-.15.21-.33.42a5.37,5.37,0,0,1-1.44,1.17,5.21,5.21,0,0,1-2.44.63,5.37,5.37,0,0,1-5-3.53,4.37,4.37,0,0,1-.22-.84.19.19,0,0,1,0-.08H50.69A2.19,2.19,0,0,0,52.4,48.9ZM40.31,47.46a5.27,5.27,0,0,1,10.24,0Zm29.24,1.22a1.91,1.91,0,1,1-1.9-1.92A1.92,1.92,0,0,1,69.55,48.68Zm-9.93-5.17a4,4,0,0,0-.42,0c-2.16.27-2.37,1.32-2.37,3.82v7.74a1.08,1.08,0,1,1-2.15,0V42.51a1.08,1.08,0,0,1,2.1-.33,4.23,4.23,0,0,1,2.55-.83h.3a1.09,1.09,0,0,1,1.09,1.09A1.08,1.08,0,0,1,59.62,43.51ZM37.91,54.41a1.11,1.11,0,0,1,.31.77,1.08,1.08,0,0,1-1.86.75l-5.58-5.62L25.18,56a1.07,1.07,0,0,1-.76.32,1.08,1.08,0,0,1-1.08-1.09,1.07,1.07,0,0,1,.33-.78l5.58-5.64-5.58-5.63a1.12,1.12,0,0,1-.33-.78,1.08,1.08,0,0,1,1.08-1.09,1.07,1.07,0,0,1,.76.31l5.61,5.63,5.58-5.62a1.09,1.09,0,0,1,1.54,1.53l-5.59,5.65ZM67.65,41.16a7.52,7.52,0,1,0,7.45,7.52A7.49,7.49,0,0,0,67.65,41.16Zm0,12.79a5.28,5.28,0,1,1,5.22-5.27A5.25,5.25,0,0,1,67.65,54Z" style="fill:#fff;fill-rule:evenodd"/></svg>